<?xml version="1.0" encoding="utf-8"?>
<!-- Generator: Adobe Illustrator 17.1.0, SVG Export Plug-In . SVG Version: 6.00 Build 0)  -->
<!DOCTYPE svg PUBLIC "-//W3C//DTD SVG 1.1//EN" "http://www.w3.org/Graphics/SVG/1.1/DTD/svg11.dtd">
<svg version="1.1" id="Layer_1" xmlns="http://www.w3.org/2000/svg" xmlns:xlink="http://www.w3.org/1999/xlink" x="0px" y="0px"
	 viewBox="0 0 150 62.6" enable-background="new 0 0 150 62.6" xml:space="preserve">
<g>
	<path d="M41.5,53.4c0.3-0.1,0.6-0.1,0.9-0.2c0.3-0.1,0.7-0.2,1-0.3c0.4-0.1,0.7-0.3,1.1-0.4c0.4-0.2,0.8-0.4,1.2-0.6
		c0.8-0.4,1.6-1.1,2.3-1.8c0.7-0.7,1.5-1.5,2-2.5c0.1-0.2,0.3-0.5,0.4-0.7c0.1-0.3,0.2-0.5,0.3-0.8c0.1-0.6,0.3-1.1,0.4-1.6
		c0.1-0.5,0.1-1.1,0.2-1.7c0-0.3,0-0.5,0-0.8c0-0.2,0-0.3,0-0.5l-6,1.2L39.7,53c0,0-0.1,0-0.1,0v0.6c0,0,0.3,0,0.6,0
		C40.4,53.5,41,53.5,41.5,53.4z"/>
	<path d="M109.7,0H77.6H52.4v4.1h-8.2v1.8h-4.1H0c8.6,12.3,23.2,21,39.8,21c0.7,0,1.4-0.2,2-0.2C43,26.8,44,27,45,27.4
		c0.2,0.1,0.4,0.1,0.6,0.2c0.4,0.1,0.8,0.3,1.2,0.4c0.4,0.2,0.9,0.4,1.3,0.6c0.9,0.5,1.8,1.1,2.6,2c0.8,0.8,1.6,1.8,2.3,2.9
		c0.6,1.1,1.2,2.4,1.5,3.7c0.1,0.3,0.1,0.7,0.2,1c0.1,0.3,0.1,0.7,0.1,1l0,0.5l0,0.3l0,0.1l0,0l0,0l0,0.1l0,0.1c0,0.3,0,0.6,0,0.9
		c0,0.3-0.1,0.7-0.1,1c-0.1,0.4-0.1,0.7-0.3,1.1c-0.1,0.3-0.2,0.7-0.4,1c-0.1,0.3-0.3,0.6-0.5,0.9c-0.3,0.6-0.7,1.2-1.1,1.7
		c-0.4,0.5-0.8,1-1.2,1.5c-0.8,0.9-1.7,1.7-2.6,2.4c-0.9,0.6-1.8,1.1-2.7,1.5c-0.4,0.2-0.9,0.4-1.3,0.5c-0.4,0.1-0.8,0.3-1.2,0.3
		c0,0,0,0,0,0c-0.4,0.1-0.7,0.2-1.1,0.2c-0.3,0-0.6,0.1-0.9,0.1c-0.5,0.1-1.1,0-1.4,0.1c-0.3,0-0.6,0-0.6,0v9h17.7
		c4.1-5.8,10.5-8.9,17.8-8.9s13.7,3.1,17.8,8.9h16.3v-9.3l-4,0h1.3c0,0-0.2,0-0.6,0c-0.2,0-0.4,0-0.7,0c-0.1,0-0.3,0-0.5,0
		c-0.2,0-0.3,0-0.5-0.1c-0.4,0-0.8-0.1-1.2-0.2c-0.4-0.1-0.9-0.2-1.4-0.3c-0.5-0.1-1-0.3-1.6-0.5c-0.6-0.2-1.1-0.4-1.7-0.7
		c-0.3-0.1-0.6-0.3-0.9-0.5c-0.3-0.2-0.6-0.3-0.9-0.5c-0.6-0.4-1.2-0.8-1.8-1.2c-1.2-0.9-2.4-2-3.7-3.2c-1.2-1.2-2.3-2.7-3.2-4.5
		c-0.2-0.4-0.4-0.9-0.5-1.3C87.1,40,87,39.7,87,39.4l0,0c0-0.2-0.1-0.4-0.1-0.6c-0.1-0.5-0.2-1-0.2-1.4c0-0.2,0-0.5-0.1-0.7l0-0.4
		l0-0.2l0-0.1l0,0c0-0.1,0,0.1,0-0.2l0,0c0.1-0.9,0.1-1.6,0.3-2.7c0.1-1.1,0.5-2,0.8-2.9c0.4-0.9,0.7-1.8,1.2-2.6
		c0.3-0.4,0.5-0.8,0.7-1.2c0.3-0.4,0.6-0.7,0.8-1.1c0.3-0.4,0.6-0.7,0.9-1l0.5-0.5c0.2-0.2,0.3-0.3,0.5-0.4c0.3-0.3,0.7-0.6,1-0.8
		c0.3-0.2,0.7-0.5,1-0.7c0.2-0.1,0.3-0.2,0.5-0.3c0.2-0.1,0.3-0.2,0.5-0.3c0.3-0.2,0.7-0.4,1-0.6c0.7-0.3,1.4-0.6,2-0.8
		c0.7-0.2,1.3-0.4,1.9-0.5c0.6-0.1,1.2-0.3,1.7-0.3c0.6,0,1.1-0.1,1.5-0.1c0.5,0,0.9,0,1.3,0c0.2,0,0.4,0,0.5,0c0,0,0,0,0.1,0
		c0,0,0,0,0,0c1.5,0,2.9,0.5,4.3,0.8l17.6-10.9h4.7V0H109.7z M43.6,18.7c-6.4-6.9-19.6,0.6-38-9.9h38V18.7z M51.8,12.3L51.8,12.3
		c-0.2,1.3-1.3,2.3-2.6,2.3c-1.4,0-2.5-1-2.6-2.3h0V6.4h5.3V12.3z M86.6,48.7c0.6,0.4,1.1,0.8,1.7,1.2c0.5,0.4,1,0.8,1.5,1.1
		c1,0.7,1.8,1.5,2.5,2.1c0.7,0.7,1.3,1.3,1.8,1.7c1,1,1.6,1.6,1.6,1.6s-0.6-0.5-1.6-1.5c-0.5-0.5-1.2-1-1.9-1.7
		c-0.8-0.6-1.6-1.3-2.6-2c-0.5-0.4-1-0.7-1.5-1.1c-0.5-0.4-1.1-0.7-1.7-1.1c-0.3-0.2-0.6-0.4-0.9-0.5c-0.3-0.2-0.6-0.3-0.9-0.5
		c-0.6-0.4-1.3-0.6-2-0.9c-1.4-0.5-2.8-1.1-4.4-1.4c-1.5-0.3-3.1-0.5-4.6-0.5c-1.6,0-3.1,0.2-4.6,0.6c-0.4,0.1-0.7,0.2-1.1,0.3
		c-0.4,0.1-0.7,0.2-1.1,0.3c-0.7,0.2-1.4,0.5-2.1,0.8c-1.4,0.6-2.6,1.2-3.8,1.9c-1.2,0.7-2.3,1.4-3.2,2.1c-1,0.7-1.8,1.4-2.6,2
		c-0.8,0.6-1.4,1.2-1.9,1.6c-0.5,0.5-0.9,0.8-1.2,1.1c-0.3,0.3-0.4,0.4-0.4,0.4s0.1-0.1,0.4-0.4c0.3-0.3,0.6-0.7,1.1-1.2
		c0.5-0.5,1.1-1.1,1.8-1.8c0.7-0.7,1.5-1.4,2.5-2.2c1.9-1.6,4.2-3.3,6.9-4.7c0.7-0.3,1.4-0.7,2.2-0.9c0.4-0.1,0.8-0.3,1.1-0.4
		c0.4-0.1,0.8-0.2,1.2-0.3c1.6-0.4,3.3-0.5,4.9-0.5c1.7,0.1,3.3,0.3,4.9,0.8c1.6,0.4,3,1,4.4,1.7c0.7,0.4,1.4,0.7,2,1.1
		c0.3,0.2,0.6,0.4,0.9,0.5C86,48.3,86.3,48.5,86.6,48.7z M131.4,1.5l-0.2,1.5H131l-0.1-1.1c-1.5,0.2-3,0.3-4.5,0.5
		c-1.6,0.1-3.2,0.3-4.8,0.4l-4.8,0.3l-4.8,0.2c-1.6,0.1-3.2,0.1-4.8,0.2l-4.8,0.1c-1.6,0-3.2,0-4.8,0.1l-4.8,0l-9.5-0.1l-4.8-0.1
		c-1.6,0-3.2-0.1-4.8-0.2l-4.8-0.2l-4.8-0.3c-1.6-0.1-3.2-0.3-4.8-0.4c-1.5-0.1-3-0.3-4.5-0.5l-0.1,1.1h-0.2l-0.2-1.5V1.2H55l38-0.1
		l38,0.1h0.3V1.5z"/>
	<path d="M103.3,42.7l-10.9-2.2c0,0.3,0.1,0.5,0.1,0.8l0.1,0.6l0.1,0.5c0.1,0.4,0.1,0.7,0.2,1.1c0.1,0.4,0.2,0.7,0.3,1.1
		c0.5,1.4,1.3,2.7,2.2,3.7c0.5,0.5,1,1,1.5,1.4c0.5,0.4,1.1,0.8,1.6,1.1c0.5,0.3,1.1,0.6,1.6,0.8c0.5,0.2,1,0.4,1.5,0.6
		c0.5,0.1,0.9,0.3,1.4,0.4c0.4,0.1,0.8,0.2,1.2,0.2c0.2,0,0.4,0.1,0.5,0.1c0.2,0,0.3,0,0.5,0c0.3,0,0.5,0,0.7,0.1c0.4,0,0.6,0,0.6,0
		h2.7L103.3,42.7z"/>
</g>
</svg>
