<svg xmlns="http://www.w3.org/2000/svg" viewBox="0 0 260 64" height="64" width="260"><path d="M258.937 54.237v-10.82h-2.38v4.282h-4.39v-4.284h-2.382v10.82h2.382v-4.343h4.39v4.344h2.38zm-173.786 0l-2.643-3.865c.69-.257 1.25-.66 1.677-1.212.428-.552.64-1.265.64-2.14v-.032c0-1.124-.357-2-1.072-2.63-.717-.627-1.72-.942-3.007-.942h-4.948v10.82h2.382v-3.46h1.868l2.32 3.46h2.783zm-2.737-7.094c0 .462-.156.834-.47 1.112-.315.278-.766.417-1.354.417h-2.41v-3.107h2.364c.587 0 1.045.128 1.375.387.33.257.493.644.493 1.16v.03zm26.715 7.094V52.12h-5.875v-2.273h5.103V47.73h-5.103v-2.195h5.8v-2.12h-8.164v10.822h8.238zm23.856-3.198v-.033c0-.474-.075-.882-.225-1.222-.15-.34-.372-.636-.665-.89-.294-.25-.655-.467-1.082-.648-.428-.18-.914-.343-1.46-.487-.465-.124-.85-.232-1.153-.324-.304-.092-.543-.19-.72-.293-.173-.104-.295-.22-.363-.35-.066-.128-.1-.28-.1-.454v-.032c0-.27.116-.493.348-.673.232-.182.58-.27 1.044-.27.462 0 .926.095 1.39.284.464.19.937.45 1.423.78l1.236-1.793c-.557-.444-1.168-.784-1.833-1.02-.664-.237-1.394-.356-2.187-.356-.557 0-1.067.08-1.53.233-.465.155-.863.376-1.2.666-.334.287-.594.63-.78 1.027-.186.396-.278.84-.278 1.337v.03c0 .537.085.985.255 1.346.17.36.41.66.718.904.31.24.687.445 1.13.61.442.166.937.315 1.484.45.452.113.82.22 1.105.323.282.104.504.206.664.31.158.103.266.214.323.332.058.118.086.254.086.41v.03c0 .32-.14.57-.41.75-.274.18-.658.27-1.153.27-.618 0-1.188-.12-1.708-.355-.522-.238-1.03-.558-1.525-.96l-1.406 1.686c.648.588 1.37 1.024 2.164 1.308.793.283 1.6.424 2.427.424.59 0 1.125-.075 1.61-.224.483-.15.9-.365 1.25-.65.35-.282.625-.633.82-1.05.195-.417.294-.895.294-1.43zm24.225 3.197V52.12h-5.875v-2.273h5.102V47.73h-5.102v-2.195h5.798v-2.12h-8.164v10.822h8.24zm26.575 0l-4.637-10.898h-2.196l-4.637 10.897h2.428l.988-2.426h4.577l.99 2.427h2.488zm-4.328-4.53h-2.876l1.44-3.508 1.437 3.508zm29.266 4.53l-2.643-3.865c.69-.257 1.25-.66 1.676-1.212.428-.552.643-1.265.643-2.14v-.032c0-1.124-.36-2-1.076-2.63-.716-.627-1.72-.942-3.007-.942h-4.948v10.82h2.38v-3.46h1.87l2.32 3.46h2.783zm-2.736-7.094c0 .462-.158.834-.472 1.112-.314.278-.766.417-1.354.417h-2.41v-3.107h2.366c.588 0 1.045.128 1.376.387.33.257.495.644.495 1.16v.03zm27.982 5.348l-1.517-1.53c-.422.392-.846.7-1.274.928-.43.227-.952.34-1.57.34-.465 0-.89-.09-1.275-.27-.388-.18-.718-.426-.99-.734-.274-.31-.488-.67-.642-1.084-.154-.41-.232-.85-.232-1.313v-.03c0-.465.08-.9.233-1.308.154-.407.37-.765.65-1.075.278-.308.61-.55.996-.726.386-.177.806-.265 1.26-.265.546 0 1.038.11 1.475.326.44.218.868.515 1.29.898l1.517-1.748c-.248-.247-.515-.473-.804-.68-.288-.207-.603-.38-.943-.527-.34-.142-.72-.257-1.136-.338-.42-.083-.88-.124-1.385-.124-.834 0-1.597.147-2.288.44-.69.295-1.282.697-1.778 1.207-.496.51-.883 1.103-1.16 1.778-.28.674-.417 1.4-.417 2.172v.03c0 .774.138 1.5.417 2.182.277.677.664 1.268 1.16 1.768.495.5 1.08.893 1.76 1.183.68.29 1.42.434 2.212.434.525 0 1-.044 1.423-.132.42-.088.812-.217 1.166-.387.357-.17.684-.373.984-.61.297-.238.587-.506.865-.804" fill="#7b7979"/><path d="M244.565 32.887h14.382v6.416H237.57V9.81h6.995v23.077zM31.29 6.272c14.207 0 25.727 11.52 25.727 25.728 0 6.377-2.32 12.21-6.164 16.707-1.99-3.463-3.83-6.656-5.844-10.144l-8.235.02 4.157-7.158c-3.157-5.468-6.492-11.308-9.643-16.796L11.727 48.706C7.884 44.21 5.563 38.377 5.563 32c0-14.207 11.52-25.728 25.726-25.728zm60.034 12.136c-2.85 6.96-5.68 13.93-8.517 20.895h-7.18l12.64-29.698h6.28l12.638 29.698h-7.342c-4.93-12.092-3.452-8.53-8.52-20.895zm38.77 3.196v17.7h-6.91V9.81h6.335l13.03 17.122V9.812h6.91V39.3h-5.88l-13.485-17.698zm50.4 7.913L187.81 9.81h7.546l-11.923 29.7h-6.042L165.47 9.81h7.71l7.317 19.707zm38.153 9.786h-6.995V9.81h6.995v29.493" fill="#f3791d" fill-rule="evenodd"/><path d="M31.29 1.764c16.697 0 30.235 13.54 30.235 30.236S47.987 62.236 31.29 62.236C14.592 62.236 1.052 48.696 1.052 32c0-16.697 13.54-30.236 30.236-30.236zM50.266 49.37c-4.704 5.137-11.466 8.358-18.978 8.358-7.51 0-14.273-3.22-18.977-8.36h6.064L31.29 26.877l2.6 4.532-7.72 13.3 15.334-.04 2.7 4.7h6.063zM31.29 4.55c15.158 0 27.45 12.29 27.45 27.45 0 15.157-12.292 27.45-27.45 27.45S3.84 47.158 3.84 32c0-15.16 12.292-27.45 27.45-27.45" fill="#7b7979" fill-rule="evenodd"/></svg>